HIERARCHY
ROOT Hips
{
	OFFSET 0.000000 0.000000 0.000000
	CHANNELS 6 Xposition Yposition Zposition Zrotation Yrotation Xrotation 
	JOINT LeftUpLeg_virtual
	{
		OFFSET 0.000000 0.000000 0.000000
		CHANNELS 3 Zrotation Yrotation Xrotation
		JOINT LeftUpLeg
		{
			OFFSET 8.479694 -4.795517 -0.379053
			CHANNELS 3 Zrotation Yrotation Xrotation
			JOINT LeftLeg
			{
				OFFSET 0.485052 -32.551468 0.112863
				CHANNELS 3 Zrotation Yrotation Xrotation
				JOINT LeftFoot
				{
					OFFSET 0.438033 -32.635670 -3.012641
					CHANNELS 3 Zrotation Yrotation Xrotation
					JOINT LeftToeBase
					{
						OFFSET 0.970169 -13.225353 11.864223
						CHANNELS 3 Zrotation Yrotation Xrotation
						End Site
						{
							OFFSET 0.000000 0.000000 0.000000
						}
					}
				}
			}
		}
	}
	JOINT RightUpLeg_virtual
	{
		OFFSET 0.000000 0.000000 0.000000
		CHANNELS 3 Zrotation Yrotation Xrotation
		JOINT RightUpLeg
		{
			OFFSET -8.479694 -4.795517 -0.379053
			CHANNELS 3 Zrotation Yrotation Xrotation
			JOINT RightLeg
			{
				OFFSET -0.484100 -32.551483 0.112903
				CHANNELS 3 Zrotation Yrotation Xrotation
				JOINT RightFoot
				{
					OFFSET -0.438985 -32.635651 -3.012681
					CHANNELS 3 Zrotation Yrotation Xrotation
					JOINT RightToeBase
					{
						OFFSET -0.970169 -13.225354 11.864223
						CHANNELS 3 Zrotation Yrotation Xrotation
						End Site
						{
							OFFSET 0.000000 0.000000 0.000000
						}
					}
				}
			}
		}
	}
	JOINT Spine_virtual
	{
		OFFSET 0.000000 0.000000 0.000000
		CHANNELS 3 Zrotation Yrotation Xrotation
		JOINT Spine
		{
			OFFSET 0.000000 7.722015 1.166203
			CHANNELS 3 Zrotation Yrotation Xrotation
			JOINT Spine1
			{
				OFFSET 0.000000 12.024086 0.248766
				CHANNELS 3 Zrotation Yrotation Xrotation
				JOINT Spine2
				{
					OFFSET -0.000000 11.503036 -0.491240
					CHANNELS 3 Zrotation Yrotation Xrotation
					JOINT Neck_virtual
					{
						OFFSET 0.000000 0.000000 0.000000
						CHANNELS 3 Zrotation Yrotation Xrotation
						JOINT Neck
						{
							OFFSET 0.000000 18.430687 -3.123054
							CHANNELS 3 Zrotation Yrotation Xrotation
							JOINT Head
							{
								OFFSET -0.000000 9.051071 1.034021
								CHANNELS 3 Zrotation Yrotation Xrotation
								End Site
								{
									OFFSET 0.000000 0.000000 0.000000
								}
							}
						}
					}
					JOINT LeftShoulder_virtual
					{
						OFFSET 0.000000 0.000000 0.000000
						CHANNELS 3 Zrotation Yrotation Xrotation
						JOINT LeftShoulder
						{
							OFFSET 6.197824 13.665230 -4.064723
							CHANNELS 3 Zrotation Yrotation Xrotation
							JOINT LeftArm
							{
								OFFSET 7.778132 -0.187073 -1.709282
								CHANNELS 3 Zrotation Yrotation Xrotation
								JOINT LeftForeArm
								{
									OFFSET 21.954697 0.000000 -2.041093
									CHANNELS 3 Zrotation Yrotation Xrotation
									JOINT LeftHand
									{
										OFFSET 22.992908 0.000000 -0.870901
										CHANNELS 3 Zrotation Yrotation Xrotation
										End Site
										{
											OFFSET 0.000000 0.000000 0.000000
										}
									}
								}
							}
						}
					}
					JOINT RightShoulder_virtual
					{
						OFFSET 0.000000 0.000000 0.000000
						CHANNELS 3 Zrotation Yrotation Xrotation
						JOINT RightShoulder
						{
							OFFSET -6.197824 13.665230 -4.064723
							CHANNELS 3 Zrotation Yrotation Xrotation
							JOINT RightArm
							{
								OFFSET -7.778132 -0.187073 -1.709282
								CHANNELS 3 Zrotation Yrotation Xrotation
								JOINT RightForeArm
								{
									OFFSET -21.954697 0.000000 -2.041093
									CHANNELS 3 Zrotation Yrotation Xrotation
									JOINT RightHand
									{
										OFFSET -22.992908 0.000000 -0.870901
										CHANNELS 3 Zrotation Yrotation Xrotation
										End Site
										{
											OFFSET 0.000000 0.000000 0.000000
										}
									}
								}
							}
						}
					}
				}
			}
		}
	}
}
MOTION
Frames: 13
Frame Time: 0.033333
-10.751168 81.042763 68.984283 179.910666 19.187048 -179.616818 -4.056860 0.601837 14.412806 -0.979177 8.208079 -35.180990 9.553671 9.712449 31.556990 -0.941854 -0.248003 -6.918734 0.000000 0.000000 0.000000 2.290245 -0.820258 12.194885 -2.140897 0.988725 -41.524497 0.291133 4.598255 36.366574 8.814885 7.591886 -4.002481 0.000000 0.000000 0.000000 1.031348 1.232668 6.362993 2.711003 0.202343 3.531304 -0.350405 -2.322865 12.947196 0.027187 -0.000378 0.068295 -0.120631 -1.586747 12.325016 -2.479519 0.797883 -1.233121 0.000000 0.000000 0.000000 1.130155 -1.241390 8.941458 -2.882144 -8.140518 4.592999 -63.483337 -29.112957 4.455123 -114.467475 -88.629976 140.768286 0.000000 0.000000 0.000000 -2.867931 0.999598 8.079194 20.158369 14.166758 6.947361 46.373460 15.743480 17.927841 -164.211148 76.755289 -167.278627 0.000000 0.000000 0.000000 
-10.772867 81.032623 69.031998 179.878605 19.345471 -179.619154 -4.078201 0.599177 14.378455 -0.971128 8.275263 -35.197679 9.539779 9.696100 31.558681 -0.927623 -0.222659 -6.925365 0.000000 0.000000 0.000000 2.273203 -0.861340 12.165329 -2.165064 1.099740 -41.554960 0.302828 4.596759 36.326774 8.892892 7.648836 -3.935598 0.000000 0.000000 0.000000 1.010328 1.279536 6.360151 2.642296 0.202394 3.577999 -0.369094 -2.330784 12.895522 -0.013695 -0.051204 0.057701 -0.048747 -1.264363 12.293570 -2.422105 0.713590 -1.301199 0.000000 0.000000 0.000000 1.204186 -1.073952 8.916115 -2.868310 -8.275615 4.613584 -63.399674 -29.028362 4.410652 -111.460484 -88.541422 137.721885 0.000000 0.000000 0.000000 -2.781182 1.001993 7.924547 20.239835 14.141859 6.879227 46.590510 15.501924 18.062416 -164.387845 76.808851 -167.440353 0.000000 0.000000 0.000000 
-10.791664 81.026276 69.084198 179.890831 19.471374 -179.632541 -4.060685 0.619786 14.359194 -0.989830 8.323047 -35.192850 9.546388 9.726040 31.555310 -0.942043 -0.229847 -6.924373 0.000000 0.000000 0.000000 2.287239 -0.835722 12.153880 -2.186367 1.131633 -41.573172 0.304565 4.591885 36.274131 8.942312 7.651591 -3.868837 0.000000 0.000000 0.000000 1.017499 1.357059 6.357681 2.587972 0.189081 3.577641 -0.365495 -2.347977 12.912006 0.001045 -0.014594 0.088653 -0.024102 -1.387191 12.286079 -2.455389 0.775019 -1.152782 0.000000 0.000000 0.000000 1.222450 -1.166747 8.977694 -2.846348 -8.257237 4.571922 -63.439507 -28.980824 4.421625 -115.078087 -88.524217 141.315644 0.000000 0.000000 0.000000 -2.769248 0.972654 8.026725 20.395875 14.174427 6.899799 46.635060 15.463794 18.160537 -164.096360 76.721391 -167.112599 0.000000 0.000000 0.000000 
-10.811353 81.019966 69.136658 179.897880 19.555941 -179.636161 -4.023296 0.625534 14.334675 -1.037572 8.363844 -35.204776 9.561006 9.746159 31.531456 -0.947914 -0.217669 -6.919094 0.000000 0.000000 0.000000 2.303944 -0.806285 12.153368 -2.213167 1.145751 -41.613027 0.308610 4.564604 36.244911 9.006418 7.657727 -3.806937 0.000000 0.000000 0.000000 1.032058 1.334862 6.363893 2.550674 0.187681 3.600427 -0.365517 -2.283566 12.889956 -0.002841 0.030605 0.121476 -0.059760 -1.378313 12.201376 -2.456843 0.748783 -1.087317 0.000000 0.000000 0.000000 1.190440 -1.225539 8.884179 -2.801487 -8.347482 4.441007 -63.393711 -28.833732 4.348142 -114.532533 -88.490135 140.730556 0.000000 0.000000 0.000000 -2.793003 0.991278 7.924113 20.474168 14.160410 6.891265 46.874355 15.397825 18.377240 -163.841143 76.673866 -166.884457 0.000000 0.000000 0.000000 
-10.832298 81.016319 69.194000 179.918944 19.599064 -179.648291 -4.016684 0.660351 14.324372 -1.031974 8.410505 -35.214277 9.560756 9.783265 31.513858 -0.976057 -0.241369 -6.916841 0.000000 0.000000 0.000000 2.335294 -0.775595 12.159016 -2.238152 1.143661 -41.662443 0.302790 4.524024 36.211341 9.050949 7.636002 -3.740957 0.000000 0.000000 0.000000 1.061625 1.351842 6.381618 2.543743 0.154711 3.624044 -0.334978 -2.290412 12.862026 -0.004812 0.043033 0.080654 -0.060742 -1.420344 12.231182 -2.495579 0.773971 -1.041551 0.000000 0.000000 0.000000 1.168332 -1.224777 8.851524 -2.790618 -8.308981 4.595363 -63.411504 -28.907656 4.187982 -114.279535 -88.495585 140.419223 0.000000 0.000000 0.000000 -2.785996 1.009156 7.961997 20.558711 14.215963 6.922383 46.933686 15.507842 18.568535 -163.913120 76.694268 -166.895891 0.000000 0.000000 0.000000 
-10.862076 81.012268 69.259529 179.931334 19.626132 -179.651133 -4.007298 0.681010 14.305447 -1.056781 8.449742 -35.257430 9.560966 9.823465 31.495635 -0.991720 -0.254001 -6.915035 0.000000 0.000000 0.000000 2.356628 -0.745549 12.169760 -2.260918 1.130100 -41.725957 0.301647 4.496311 36.189040 9.090311 7.619582 -3.666115 0.000000 0.000000 0.000000 1.090024 1.385770 6.390267 2.548630 0.146714 3.652766 -0.331329 -2.295776 12.862072 0.019620 0.037311 0.121562 -0.096008 -1.465106 12.167833 -2.496499 0.750818 -0.973557 0.000000 0.000000 0.000000 1.141637 -1.195967 8.804777 -2.756083 -8.355252 4.500954 -63.476725 -28.878364 4.083242 -113.235766 -88.491562 139.285070 0.000000 0.000000 0.000000 -2.796351 0.888808 7.963270 20.598800 14.324097 6.934140 47.011232 15.645665 18.626908 -164.208020 76.661367 -167.197061 0.000000 0.000000 0.000000 
-10.898604 81.005905 69.321754 179.898481 19.678216 -179.657225 -3.984316 0.678845 14.294113 -1.148409 8.480493 -35.320691 9.574996 9.831884 31.493702 -0.980467 -0.236326 -6.915629 0.000000 0.000000 0.000000 2.346568 -0.734482 12.167078 -2.295389 1.133110 -41.801103 0.297664 4.518807 36.173095 9.128719 7.618728 -3.574245 0.000000 0.000000 0.000000 1.109994 1.457488 6.367307 2.537463 0.154754 3.713450 -0.336408 -2.308333 12.899227 -0.003115 0.003547 -0.002518 -0.047059 -1.409031 12.182299 -2.449687 0.641522 -0.972065 0.000000 0.000000 0.000000 1.248985 -1.151802 8.721535 -2.786428 -8.293933 4.553638 -63.523894 -28.983481 3.992811 -108.433706 -88.601002 134.384928 0.000000 0.000000 0.000000 -2.795413 0.962057 7.855029 20.611935 14.241410 6.953205 47.164847 15.644680 18.606844 -164.249206 76.699090 -167.353145 0.000000 0.000000 0.000000 
-10.938452 80.998985 69.382378 179.898263 19.752846 -179.672033 -3.965360 0.688122 14.295466 -1.178917 8.509788 -35.381114 9.591939 9.865976 31.523628 -0.978719 -0.249186 -6.913396 0.000000 0.000000 0.000000 2.348094 -0.729409 12.174954 -2.309532 1.155888 -41.829298 0.303238 4.533981 36.137346 9.149271 7.627269 -3.476571 0.000000 0.000000 0.000000 1.136111 1.519985 6.407054 2.545370 0.135852 3.694132 -0.322044 -2.320800 12.815822 0.000130 0.009550 0.120943 0.001416 -1.377847 12.160856 -2.451038 0.667998 -0.923823 0.000000 0.000000 0.000000 1.256684 -1.091124 8.728552 -2.774973 -8.277972 4.455774 -63.651387 -28.968308 3.827139 -111.169894 -88.459344 137.013294 0.000000 0.000000 0.000000 -2.744164 0.974857 7.807857 20.637748 14.304653 7.036747 47.063313 15.696888 18.450195 -163.759605 76.681646 -166.760421 0.000000 0.000000 0.000000 
-10.968295 80.993271 69.430801 179.902798 19.752726 -179.678044 -3.967539 0.668037 14.293568 -1.192273 8.503730 -35.438044 9.623767 9.891052 31.565453 -0.966254 -0.262835 -6.899720 0.000000 0.000000 0.000000 2.336169 -0.766150 12.180225 -2.301269 1.146278 -41.841527 0.317822 4.531153 36.085146 9.157802 7.653148 -3.417253 0.000000 0.000000 0.000000 1.161514 1.480211 6.409571 2.563472 0.153662 3.702470 -0.303448 -2.281201 12.815107 -0.016564 0.062900 0.089306 0.016105 -1.457966 12.216045 -2.440601 0.641872 -0.851506 0.000000 0.000000 0.000000 1.273190 -1.202986 8.841335 -2.744913 -8.193144 4.399193 -63.722912 -29.032641 3.820066 -110.344308 -88.458962 136.076124 0.000000 0.000000 0.000000 -2.704454 0.861419 7.905235 20.559325 14.291414 7.059782 47.023745 15.595759 18.204110 -163.768156 76.688435 -166.764150 0.000000 0.000000 0.000000 
-10.982563 80.987488 69.464821 179.949475 19.728962 -179.672456 -3.961569 0.652789 14.288214 -1.158594 8.451022 -35.473827 9.662640 9.948587 31.615433 -0.964597 -0.304961 -6.874699 0.000000 0.000000 0.000000 2.343895 -0.779146 12.187389 -2.277334 1.119615 -41.836743 0.337695 4.512820 36.023558 9.127718 7.663374 -3.403218 0.000000 0.000000 0.000000 1.199328 1.461274 6.412100 2.609044 0.115283 3.705782 -0.261655 -2.351655 12.801261 0.015554 -0.003558 0.072668 -0.007234 -1.580965 12.222328 -2.485318 0.670050 -0.933227 0.000000 0.000000 0.000000 1.213049 -1.133111 8.793957 -2.774702 -8.089623 4.588422 -63.744202 -29.138615 3.721078 -112.690676 -88.425794 138.313380 0.000000 0.000000 0.000000 -2.763917 0.964813 7.873459 20.525852 14.280992 7.149509 46.864773 15.599338 18.024651 -163.905607 76.804808 -166.876671 0.000000 0.000000 0.000000 
-10.976111 80.982056 69.491318 179.912756 19.826605 -179.678795 -3.972973 0.612297 14.270841 -1.144755 8.401332 -35.491787 9.685633 9.952810 31.644113 -0.939110 -0.306439 -6.834174 0.000000 0.000000 0.000000 2.325558 -0.781204 12.175953 -2.271627 1.148990 -41.861102 0.354101 4.537865 36.013549 9.127429 7.706340 -3.370094 0.000000 0.000000 0.000000 1.175284 1.526004 6.384280 2.631861 0.179659 3.696803 -0.255381 -2.304696 12.808674 -0.012682 0.026201 0.129674 0.062113 -1.392634 12.146557 -2.452263 0.557235 -0.943769 0.000000 0.000000 0.000000 1.285432 -1.174657 8.826182 -2.725021 -8.003079 4.476546 -63.675306 -29.184360 3.553302 -111.374526 -88.364937 136.884245 0.000000 0.000000 0.000000 -2.693251 0.999637 7.837691 20.485875 14.208346 7.271721 46.692491 15.390003 18.104591 -163.329876 76.709233 -166.184281 0.000000 0.000000 0.000000 
-10.958580 80.973259 69.508568 179.979241 19.831675 -179.663905 -3.828654 0.548963 14.266185 -1.251681 8.393841 -35.478427 9.673156 9.827147 31.631982 -0.880143 -0.239761 -6.802986 0.000000 0.000000 0.000000 2.370319 -0.739790 12.191997 -2.239044 1.166695 -41.873605 0.374353 4.534555 36.020502 9.073360 7.696438 -3.380566 0.000000 0.000000 0.000000 1.199967 1.488924 6.379077 2.693592 0.140952 3.678923 -0.221014 -2.343800 12.782850 0.052496 0.046258 0.135428 -0.051816 -1.593480 12.138961 -2.571990 0.571037 -1.053707 0.000000 0.000000 0.000000 1.237771 -1.168224 8.741760 -2.792111 -7.755658 4.488933 -63.707217 -29.230826 3.721126 -108.745826 -88.438778 134.173438 0.000000 0.000000 0.000000 -2.769308 1.009773 7.872722 20.368082 14.350443 7.356404 46.352539 15.348579 18.417136 -163.303471 76.755036 -166.149392 0.000000 0.000000 0.000000 
-10.942774 80.965576 69.528053 179.960704 19.826830 -179.683521 -3.806116 0.495054 14.245511 -1.258749 8.378326 -35.461482 9.661453 9.829392 31.653347 -0.844577 -0.212127 -6.763881 0.000000 0.000000 0.000000 2.369644 -0.758665 12.198620 -2.228384 1.183083 -41.904706 0.378620 4.587902 36.067794 9.029388 7.683433 -3.395400 0.000000 0.000000 0.000000 1.201019 1.477459 6.390179 2.747015 0.206095 3.694235 -0.231805 -2.311665 12.772151 -0.009644 0.059618 0.070602 0.059166 -1.371631 12.196425 -2.531467 0.501516 -1.202551 0.000000 0.000000 0.000000 1.339505 -1.227076 8.796391 -2.770393 -7.725926 4.448480 -63.643901 -29.280901 3.772329 -107.600307 -88.496760 132.951627 0.000000 0.000000 0.000000 -2.669931 0.945720 7.874785 20.380304 14.263150 7.378868 45.997431 15.064006 19.038743 -163.490632 76.849272 -166.242324 0.000000 0.000000 0.000000 
